<svg width="100" height="100" viewBox="0 0 100 100" fill="none" xmlns="http://www.w3.org/2000/svg">
<g id="arcticons:thriftbooks">
<path id="Vector" d="M56.7771 11.4585H43.9542C42.4561 11.4585 41.2417 12.6729 41.2417 14.171V85.2814C41.2417 86.7795 42.4561 87.9939 43.9542 87.9939H56.7771C58.2752 87.9939 59.4896 86.7795 59.4896 85.2814V14.171C59.4896 12.6729 58.2752 11.4585 56.7771 11.4585Z" stroke="black" stroke-width="1.04167" stroke-linecap="round" stroke-linejoin="round"/>
<g id="Group">
<path id="Vector_2" d="M72.8413 30.3116L63.3686 31.9819C62.2627 32.1769 61.5243 33.2315 61.7193 34.3374L70.9809 86.8625C71.1759 87.9684 72.2305 88.7069 73.3364 88.5119L82.809 86.8416C83.915 86.6466 84.6534 85.592 84.4584 84.4861L75.1968 31.961C75.0018 30.855 73.9472 30.1166 72.8413 30.3116Z" stroke="black" stroke-width="1.04167" stroke-linecap="round" stroke-linejoin="round"/>
<path id="Vector_3" d="M63.1753 40.7958L67.6399 40.0083" stroke="black" stroke-width="1.04167" stroke-linecap="round" stroke-linejoin="round"/>
</g>
<path id="Vector_4" d="M41.2417 79.2231H59.4896M41.2417 73.9398H59.4896M41.2438 69.1294H59.4896" stroke="black" stroke-width="1.04167" stroke-linecap="round" stroke-linejoin="round"/>
<path id="Vector_5" d="M26.1031 24.4955L15.552 83.5203C15.2884 84.995 16.2702 86.4041 17.7449 86.6677L26.8752 88.2998C28.3498 88.5635 29.759 87.5817 30.0226 86.107L40.5738 27.0822C40.8374 25.6075 39.8556 24.1983 38.3809 23.9347L29.2506 22.3026C27.7759 22.039 26.3668 23.0208 26.1031 24.4955Z" stroke="black" stroke-width="1.04167" stroke-linecap="round" stroke-linejoin="round"/>
<path id="Vector_6" d="M24.2417 35.5312L37.7146 37.9354" stroke="black" stroke-width="1.04167" stroke-linecap="round" stroke-linejoin="round"/>
</g>
</svg>
