<svg width="35" height="35" viewBox="0 0 35 35" fill="none" xmlns="http://www.w3.org/2000/svg">
<g id="basil:search-solid" clip-path="url(#clip0_41_191817)">
<path id="Vector" fill-rule="evenodd" clip-rule="evenodd" d="M22.0312 24.0111C19.3227 26.1262 15.8884 27.1474 12.4336 26.865C8.97881 26.5826 5.76577 25.0181 3.45441 22.4927C1.14305 19.9673 -0.0911626 16.6728 0.00525156 13.2859C0.101666 9.89891 1.52139 6.67659 3.97284 4.28072C6.42429 1.88485 9.72136 0.49731 13.1869 0.403082C16.6524 0.308853 20.0233 1.51509 22.6073 3.77405C25.1912 6.033 26.7921 9.1732 27.081 12.5497C27.37 15.9262 26.3251 19.2826 24.161 21.9297L34.5204 32.0523C34.6684 32.1871 34.7872 32.3497 34.8695 32.5304C34.9519 32.711 34.9962 32.906 34.9998 33.1038C35.0033 33.3015 34.9661 33.4979 34.8903 33.6813C34.8145 33.8647 34.7017 34.0313 34.5586 34.1711C34.4155 34.311 34.2451 34.4212 34.0575 34.4953C33.8698 34.5694 33.6688 34.6058 33.4665 34.6023C33.2642 34.5988 33.0646 34.5555 32.8798 34.475C32.695 34.3945 32.5286 34.2784 32.3906 34.1338L22.0312 24.0111ZM6.1083 20.9439C4.63363 19.5025 3.62926 17.6663 3.22211 15.6672C2.81497 13.6681 3.02333 11.5959 3.82085 9.71245C4.61838 7.82904 5.96928 6.21897 7.70283 5.08571C9.43638 3.95244 11.4748 3.34686 13.5604 3.34549C15.646 3.34411 17.6852 3.94702 19.4203 5.078C21.1554 6.20898 22.5085 7.81728 23.3086 9.69963C24.1088 11.582 24.32 13.6539 23.9156 15.6535C23.5112 17.6532 22.5093 19.4908 21.0367 20.9341L21.0266 20.9439L21.0166 20.9518C19.0377 22.8813 16.3561 23.9643 13.5608 23.9628C10.7655 23.9613 8.08505 22.8755 6.1083 20.9439Z" fill="black"/>
</g>
<defs>
<clipPath id="clip0_41_191817">
<rect width="35" height="35" fill="white"/>
</clipPath>
</defs>
</svg>
