<svg width="37" height="35" viewBox="0 0 37 35" fill="none" xmlns="http://www.w3.org/2000/svg">
<g id="carbon:analytics" clip-path="url(#clip0_41_191821)">
<path id="Vector" d="M4.625 0.821777H2.3125V31.7953C2.3125 32.4272 2.55614 33.0332 2.98982 33.48C3.42349 33.9268 4.01169 34.1778 4.625 34.1778H34.6875V31.7953H4.625V0.821777Z" fill="black"/>
<path id="Vector_2" d="M34.6875 9.16113H26.5938V11.5437H30.7447L21.9688 20.5856L17.0084 15.463C16.9009 15.3514 16.7731 15.2628 16.6322 15.2023C16.4913 15.1418 16.3401 15.1107 16.1875 15.1107C16.0349 15.1107 15.8837 15.1418 15.7428 15.2023C15.6019 15.2628 15.4741 15.3514 15.3666 15.463L6.9375 24.1594L8.56781 25.8392L16.1875 17.9886L21.1478 23.1111C21.2553 23.2228 21.3832 23.3114 21.5241 23.3719C21.665 23.4324 21.8161 23.4635 21.9688 23.4635C22.1214 23.4635 22.2725 23.4324 22.4134 23.3719C22.5543 23.3114 22.6822 23.2228 22.7897 23.1111L32.375 13.2234V17.5001H34.6875V9.16113Z" fill="black"/>
</g>
<defs>
<clipPath id="clip0_41_191821">
<rect width="37" height="34" fill="white" transform="translate(0 0.5)"/>
</clipPath>
</defs>
</svg>
