<svg width="330" height="50" viewBox="0 0 330 50" fill="none" xmlns="http://www.w3.org/2000/svg">
<path fill-rule="evenodd" clip-rule="evenodd" d="M29.9687 32.1794C27.1603 34.4234 23.5993 35.5068 20.017 35.2072C16.4347 34.9076 13.1031 33.2477 10.7065 30.5684C8.30986 27.8891 7.03011 24.3938 7.13008 20.8004C7.23005 17.207 8.70216 13.7883 11.2441 11.2464C13.786 8.70448 17.2047 7.23237 20.7981 7.1324C24.3915 7.03243 27.8868 8.31218 30.5661 10.7088C33.2454 13.1055 34.9053 16.4371 35.2049 20.0193C35.5045 23.6016 34.421 27.1627 32.1771 29.9711L42.9187 40.7106C43.0722 40.8537 43.1954 41.0262 43.2808 41.2178C43.3662 41.4095 43.4121 41.6164 43.4158 41.8262C43.4195 42.036 43.3809 42.2444 43.3023 42.439C43.2237 42.6335 43.1068 42.8103 42.9584 42.9586C42.81 43.107 42.6333 43.224 42.4387 43.3026C42.2442 43.3811 42.0358 43.4197 41.826 43.416C41.6162 43.4123 41.4093 43.3664 41.2176 43.281C41.0259 43.1956 40.8534 43.0725 40.7104 42.919L29.9687 32.1794ZM13.4583 28.9252C11.9292 27.396 10.8878 25.4478 10.4656 23.3268C10.0435 21.2059 10.2595 19.0074 11.0865 17.0092C11.9134 15.011 13.3142 13.3028 15.1117 12.1004C16.9092 10.8981 19.0228 10.2556 21.1853 10.2541C23.3479 10.2527 25.4624 10.8923 27.2615 12.0923C29.0606 13.2922 30.4636 14.9985 31.2933 16.9956C32.1229 18.9927 32.3419 21.1909 31.9226 23.3124C31.5033 25.4339 30.4645 27.3835 28.9375 28.9148L28.9271 28.9252L28.9166 28.9336C26.8648 30.9807 24.0842 32.1297 21.1858 32.1281C18.2873 32.1265 15.508 30.9746 13.4583 28.9252Z" fill="black"/>
<g clip-path="url(#clip0_27_36072)">
<path d="M95 0C108.355 0 120 11.025 120 23.75C120 36.26 108.618 46.105 95 46.105C92.0875 46.1065 89.1931 45.6458 86.425 44.74C85.265 45.865 84.8675 46.2475 82.405 48.6225C80.63 49.9625 78.96 50.4175 77.4675 49.5725C75.9625 48.7225 75.51 47.0675 75.8175 44.8875L76.8175 39.09C72.475 35.005 70 29.605 70 23.75C70 11.025 81.6425 0 95 0ZM95 3.5C83.535 3.5 73.5 13 73.5 23.75C73.5 28.8625 75.78 33.57 79.8 37.075L79.85 37.1175L80.5925 37.7625L80.425 38.7375L80.08 40.7475L79.9875 41.2825L79.275 45.4275C79.233 45.7066 79.2079 45.9879 79.2 46.27V46.5075C79.2 46.52 79.1975 46.525 79.195 46.5275C79.2125 46.5025 79.5525 46.395 80.135 45.97L85.56 40.705L86.595 41.095C89.2836 42.0982 92.1304 42.6105 95 42.6075C106.79 42.6075 116.5 34.2075 116.5 23.75C116.5 13.0025 106.465 3.5 95 3.5ZM83.0675 19.5325C83.5711 19.5141 84.0733 19.5974 84.5441 19.7775C85.0148 19.9575 85.4444 20.2306 85.8072 20.5804C86.17 20.9302 86.4586 21.3495 86.6557 21.8134C86.8528 22.2772 86.9544 22.776 86.9544 23.28C86.9544 23.784 86.8528 24.2828 86.6557 24.7466C86.4586 25.2105 86.17 25.6298 85.8072 25.9796C85.4444 26.3294 85.0148 26.6025 84.5441 26.7825C84.0733 26.9626 83.5711 27.0459 83.0675 27.0275C82.0973 26.9921 81.1786 26.5817 80.5048 25.8828C79.8309 25.1839 79.4544 24.2509 79.4544 23.28C79.4544 22.3091 79.8309 21.3761 80.5048 20.6772C81.1786 19.9783 82.0973 19.5679 83.0675 19.5325ZM95.5625 19.5325C96.0661 19.5141 96.5683 19.5974 97.0391 19.7775C97.5098 19.9575 97.9394 20.2306 98.3022 20.5804C98.665 20.9302 98.9536 21.3495 99.1507 21.8134C99.3478 22.2772 99.4494 22.776 99.4494 23.28C99.4494 23.784 99.3478 24.2828 99.1507 24.7466C98.9536 25.2105 98.665 25.6298 98.3022 25.9796C97.9394 26.3294 97.5098 26.6025 97.0391 26.7825C96.5683 26.9626 96.0661 27.0459 95.5625 27.0275C94.5923 26.9921 93.6736 26.5817 92.9998 25.8828C92.3259 25.1839 91.9494 24.2509 91.9494 23.28C91.9494 22.3091 92.3259 21.3761 92.9998 20.6772C93.6736 19.9783 94.5923 19.5679 95.5625 19.5325ZM108.055 19.5325C108.559 19.5141 109.061 19.5974 109.532 19.7775C110.002 19.9575 110.432 20.2306 110.795 20.5804C111.158 20.9302 111.446 21.3495 111.643 21.8134C111.84 22.2772 111.942 22.776 111.942 23.28C111.942 23.784 111.84 24.2828 111.643 24.7466C111.446 25.2105 111.158 25.6298 110.795 25.9796C110.432 26.3294 110.002 26.6025 109.532 26.7825C109.061 26.9626 108.559 27.0459 108.055 27.0275C107.085 26.9921 106.166 26.5817 105.492 25.8828C104.818 25.1839 104.442 24.2509 104.442 23.28C104.442 22.3091 104.818 21.3761 105.492 20.6772C106.166 19.9783 107.085 19.5679 108.055 19.5325Z" fill="black"/>
</g>
<path d="M146.25 3.125H143.125V43.75C143.125 44.5788 143.454 45.3737 144.04 45.9597C144.626 46.5458 145.421 46.875 146.25 46.875H186.875V43.75H146.25V3.125Z" fill="black"/>
<path d="M186.875 14.0625H175.938V17.1875H181.547L169.688 29.0469L162.984 22.3281C162.839 22.1817 162.666 22.0654 162.476 21.9861C162.285 21.9068 162.081 21.8659 161.875 21.8659C161.669 21.8659 161.465 21.9068 161.274 21.9861C161.084 22.0654 160.911 22.1817 160.766 22.3281L149.375 33.7344L151.578 35.9375L161.875 25.6406L168.578 32.3594C168.723 32.5058 168.896 32.6221 169.087 32.7014C169.277 32.7807 169.481 32.8216 169.688 32.8216C169.894 32.8216 170.098 32.7807 170.288 32.7014C170.479 32.6221 170.652 32.5058 170.797 32.3594L183.75 19.3906V25H186.875V14.0625Z" fill="black"/>
<g clip-path="url(#clip1_27_36072)">
<path fill-rule="evenodd" clip-rule="evenodd" d="M216.25 8.33317C216.25 7.22811 216.689 6.1683 217.47 5.3869C218.252 4.60549 219.312 4.16651 220.417 4.16651H224.583C225.342 4.16651 226.054 4.36859 226.667 4.72484C227.3 4.35818 228.018 4.16555 228.75 4.16651H232.917C234.431 4.16651 235.758 4.97484 236.487 6.18526C236.925 5.83526 237.437 5.56859 238.012 5.41442L242.038 4.33734C242.566 4.19556 243.117 4.15928 243.66 4.2306C244.203 4.30191 244.726 4.47942 245.2 4.75297C245.674 5.02653 246.089 5.39078 246.422 5.82491C246.756 6.25905 247 6.75457 247.142 7.28317L255.767 39.4811C255.908 40.0097 255.945 40.561 255.873 41.1036C255.802 41.6462 255.625 42.1694 255.351 42.6434C255.077 43.1174 254.713 43.5328 254.279 43.866C253.845 44.1992 253.349 44.4436 252.821 44.5853L248.796 45.6623C248.267 45.8041 247.716 45.8404 247.173 45.7691C246.631 45.6978 246.108 45.5203 245.634 45.2467C245.16 44.9732 244.744 44.6089 244.411 44.1748C244.078 43.7406 243.833 43.2451 243.692 42.7165L237.083 18.0478V41.6665C237.083 42.7716 236.644 43.8314 235.863 44.6128C235.082 45.3942 234.022 45.8332 232.917 45.8332H228.75C228.018 45.8341 227.3 45.6415 226.667 45.2748C226.034 45.6415 225.315 45.8341 224.583 45.8332H220.417C219.312 45.8332 218.252 45.3942 217.47 44.6128C216.689 43.8314 216.25 42.7716 216.25 41.6665V8.33317ZM220.417 8.33317H224.583V41.6665H220.417V8.33317ZM232.917 41.6665H228.75V8.33317H232.917V41.6665ZM239.092 9.43942L243.115 8.36234L251.744 40.5603L247.719 41.6373L239.092 9.43942Z" fill="black"/>
</g>
<path d="M290.333 37.5003C290.333 35.8206 291.001 34.2097 292.188 33.022C293.376 31.8343 294.987 31.167 296.667 31.167H313.333C315.013 31.167 316.624 31.8343 317.812 33.022C318.999 34.2097 319.667 35.8206 319.667 37.5003C319.667 38.075 319.438 38.6261 319.032 39.0324C318.626 39.4387 318.075 39.667 317.5 39.667H292.5C291.925 39.667 291.374 39.4387 290.968 39.0324C290.562 38.6261 290.333 38.075 290.333 37.5003Z" stroke="black" stroke-width="4" stroke-linejoin="round"/>
<path d="M305 22.8335C309.556 22.8335 313.25 19.1398 313.25 14.5835C313.25 10.0271 309.556 6.3335 305 6.3335C300.444 6.3335 296.75 10.0271 296.75 14.5835C296.75 19.1398 300.444 22.8335 305 22.8335Z" stroke="black" stroke-width="4"/>
<defs>
<clipPath id="clip0_27_36072">
<rect width="50" height="50" fill="white" transform="translate(70)"/>
</clipPath>
<clipPath id="clip1_27_36072">
<rect width="50" height="50" fill="white" transform="translate(210)"/>
</clipPath>
</defs>
</svg>
