<svg width="50" height="50" viewBox="0 0 50 50" fill="none" xmlns="http://www.w3.org/2000/svg">
<path d="M11.7737 29.7266V29.746C7.48643 30.0231 4.09424 33.5863 4.09424 37.9437C4.09424 42.301 7.48643 45.8642 11.7737 46.1413V46.1607H19.7315V29.7266H11.7737Z" fill="#2B2D9E"/>
<path d="M5.57051 16.9453V16.9604C2.6043 17.176 0.257324 19.9472 0.257324 23.336C0.257324 26.7249 2.6042 29.496 5.57051 29.7116V29.7268H11.0763V16.9453H5.57051Z" fill="#132028"/>
<path d="M14.187 2.61816V2.63506C10.862 2.87666 8.2312 5.98301 8.2312 9.78174C8.2312 13.5805 10.862 16.6868 14.187 16.9284V16.9453H21.4516V2.61816H14.187Z" fill="#005877"/>
<path d="M44.7923 13.8744V5.68945C44.7923 5.48329 44.8742 5.28557 45.02 5.13979C45.1657 4.99401 45.3635 4.91211 45.5696 4.91211H47.2017C47.4078 4.91211 47.6055 4.83021 47.7513 4.68443C47.8971 4.53865 47.979 4.34093 47.979 4.13477V3.39551C47.979 3.18934 47.8971 2.99162 47.7513 2.84584C47.6055 2.70006 47.4078 2.61816 47.2017 2.61816H22.2231C22.017 2.61816 21.8193 2.70006 21.6735 2.84584C21.5277 2.99162 21.4458 3.18934 21.4458 3.39551V16.1682C21.4458 16.3743 21.5277 16.572 21.6735 16.7178C21.8193 16.8636 22.017 16.9455 22.2231 16.9455H47.2017C47.4078 16.9455 47.6055 16.8636 47.7513 16.7178C47.8971 16.572 47.979 16.3743 47.979 16.1682V15.4289C47.979 15.2227 47.8971 15.025 47.7513 14.8792C47.6055 14.7335 47.4078 14.6516 47.2017 14.6516H45.5696C45.4676 14.6516 45.3665 14.6315 45.2722 14.5925C45.1779 14.5534 45.0922 14.4962 45.02 14.424C44.9478 14.3518 44.8905 14.2662 44.8515 14.1719C44.8124 14.0776 44.7923 13.9765 44.7923 13.8744Z" fill="#00B1FF"/>
<path d="M40.8011 19.3226H45.7341C46.3176 19.3226 46.7907 18.9579 46.7907 18.508V17.7599C46.7907 17.3101 46.3176 16.9453 45.7341 16.9453H10.8609V16.9646C7.95698 17.2076 5.66675 19.9662 5.66675 23.3359C5.66675 26.7057 7.95698 29.4643 10.8609 29.7072V29.7266H45.7341C46.3176 29.7266 46.7907 29.3619 46.7907 28.912V28.0952C46.7907 27.6454 46.3176 27.2807 45.7341 27.2807H40.8011C40.2176 27.2807 39.7446 26.916 39.7446 26.4661V20.1368C39.7446 19.6872 40.2176 19.3226 40.8011 19.3226Z" fill="#445056"/>
<path d="M44.368 27.2807L44.1615 27.0897C44.1382 27.0664 44.1197 27.0388 44.1071 27.0083C44.0944 26.9779 44.0879 26.9452 44.0879 26.9123C44.0879 26.8793 44.0944 26.8467 44.1071 26.8162C44.1197 26.7857 44.1382 26.7581 44.1615 26.7348L44.3855 26.5107C44.4088 26.4874 44.4273 26.4598 44.4399 26.4293C44.4525 26.3989 44.459 26.3662 44.459 26.3333C44.459 26.3003 44.4525 26.2676 44.4399 26.2372C44.4273 26.2067 44.4088 26.1791 44.3855 26.1558L44.1615 25.9317C44.1382 25.9084 44.1197 25.8808 44.1071 25.8503C44.0944 25.8199 44.0879 25.7872 44.0879 25.7542C44.0879 25.7213 44.0944 25.6886 44.1071 25.6582C44.1197 25.6277 44.1382 25.6001 44.1615 25.5768L44.3855 25.3527C44.4088 25.3294 44.4273 25.3018 44.4399 25.2713C44.4525 25.2408 44.459 25.2082 44.459 25.1752C44.459 25.1423 44.4525 25.1096 44.4399 25.0792C44.4273 25.0487 44.4088 25.0211 44.3855 24.9978L44.1615 24.7737C44.1382 24.7504 44.1197 24.7228 44.1071 24.6923C44.0944 24.6618 44.0879 24.6292 44.0879 24.5962C44.0879 24.5633 44.0944 24.5306 44.1071 24.5002C44.1197 24.4697 44.1382 24.4421 44.1615 24.4187L44.3855 24.1947C44.4088 24.1714 44.4273 24.1437 44.4399 24.1133C44.4525 24.0828 44.459 24.0502 44.459 24.0172C44.459 23.9843 44.4525 23.9516 44.4399 23.9212C44.4273 23.8907 44.4088 23.8631 44.3855 23.8397L44.1615 23.6157C44.1382 23.5924 44.1197 23.5647 44.1071 23.5343C44.0944 23.5038 44.0879 23.4712 44.0879 23.4382C44.0879 23.4053 44.0944 23.3726 44.1071 23.3422C44.1197 23.3117 44.1382 23.284 44.1615 23.2607L44.3855 23.0367C44.4088 23.0134 44.4273 22.9857 44.4399 22.9553C44.4525 22.9248 44.459 22.8922 44.459 22.8592C44.459 22.8263 44.4525 22.7936 44.4399 22.7632C44.4273 22.7327 44.4088 22.705 44.3855 22.6817L44.1615 22.4577C44.1382 22.4344 44.1197 22.4067 44.1071 22.3763C44.0944 22.3458 44.0879 22.3132 44.0879 22.2802C44.0879 22.2473 44.0944 22.2146 44.1071 22.1842C44.1197 22.1537 44.1382 22.126 44.1615 22.1027L44.3855 21.8787C44.4088 21.8554 44.4273 21.8277 44.4399 21.7973C44.4525 21.7668 44.459 21.7342 44.459 21.7012C44.459 21.6683 44.4525 21.6356 44.4399 21.6052C44.4273 21.5747 44.4088 21.547 44.3855 21.5237L44.1615 21.2997C44.1382 21.2764 44.1197 21.2487 44.1071 21.2183C44.0944 21.1878 44.0879 21.1552 44.0879 21.1222C44.0879 21.0893 44.0944 21.0566 44.1071 21.0262C44.1197 20.9957 44.1382 20.968 44.1615 20.9447L44.3855 20.7207C44.4088 20.6974 44.4273 20.6697 44.4399 20.6393C44.4525 20.6088 44.459 20.5762 44.459 20.5432C44.459 20.5102 44.4525 20.4776 44.4399 20.4472C44.4273 20.4167 44.4088 20.389 44.3855 20.3657L44.1615 20.1417C44.1382 20.1184 44.1197 20.0907 44.1071 20.0603C44.0944 20.0298 44.0879 19.9972 44.0879 19.9642C44.0879 19.9312 44.0944 19.8986 44.1071 19.8681C44.1197 19.8377 44.1382 19.81 44.1615 19.7867L44.3855 19.5627C44.4835 19.4646 44.4835 19.4161 44.3855 19.3182L43.984 19.3217H12.2944C12.0029 19.2257 11.698 19.1766 11.3911 19.1763C9.5189 19.1763 8.00122 20.9756 8.00122 23.1952C8.00122 25.4148 9.5189 27.2142 11.3911 27.2142V27.2958H43.9841" fill="#DCE2E2"/>
<path d="M21.4458 2.61816C17.4895 2.61816 14.2822 5.82539 14.2822 9.78174C14.2822 13.7381 17.4895 16.9453 21.4458 16.9453H25.0276V2.61816H21.4458Z" fill="#0074A8"/>
<path d="M46.7748 6.53369C46.7981 6.51039 46.8166 6.48272 46.8292 6.45226C46.8418 6.42181 46.8483 6.38917 46.8483 6.3562C46.8483 6.32324 46.8418 6.2906 46.8292 6.26014C46.8166 6.22969 46.7981 6.20202 46.7748 6.17871L46.5507 5.95469C46.5274 5.93138 46.5089 5.90371 46.4963 5.87326C46.4837 5.8428 46.4772 5.81016 46.4772 5.7772C46.4772 5.74423 46.4837 5.71159 46.4963 5.68114C46.5089 5.65068 46.5274 5.62301 46.5507 5.59971L46.7748 5.37568C46.8728 5.27764 46.8885 5.01016 46.7906 4.91211H21.7826C19.0931 4.91211 16.9128 7.09238 16.9128 9.78184C16.9128 12.4713 19.0931 14.6516 21.7826 14.6516H46.7758C46.8739 14.5535 46.8729 14.3826 46.7749 14.2846L46.5508 14.0605C46.5275 14.0372 46.509 14.0096 46.4964 13.9791C46.4838 13.9487 46.4773 13.916 46.4773 13.8831C46.4773 13.8501 46.4838 13.8175 46.4964 13.787C46.509 13.7565 46.5275 13.7289 46.5508 13.7056L46.7749 13.4815C46.7982 13.4582 46.8167 13.4306 46.8293 13.4001C46.8419 13.3697 46.8484 13.337 46.8484 13.3041C46.8484 13.2711 46.8419 13.2384 46.8293 13.208C46.8167 13.1775 46.7982 13.1499 46.7749 13.1266L46.5508 12.9025C46.5275 12.8792 46.509 12.8516 46.4964 12.8211C46.4838 12.7907 46.4773 12.758 46.4773 12.725C46.4773 12.6921 46.4838 12.6594 46.4964 12.629C46.509 12.5985 46.5275 12.5709 46.5508 12.5476L46.7749 12.3235C46.7982 12.3002 46.8167 12.2726 46.8293 12.2421C46.8419 12.2116 46.8484 12.179 46.8484 12.146C46.8484 12.1131 46.8419 12.0804 46.8293 12.05C46.8167 12.0195 46.7982 11.9919 46.7749 11.9686L46.5508 11.7445C46.5275 11.7212 46.509 11.6936 46.4964 11.6631C46.4838 11.6326 46.4773 11.6 46.4773 11.567C46.4773 11.5341 46.4838 11.5014 46.4964 11.471C46.509 11.4405 46.5275 11.4129 46.5508 11.3896L46.7749 11.1655C46.7982 11.1422 46.8167 11.1146 46.8293 11.0841C46.8419 11.0536 46.8484 11.021 46.8484 10.988C46.8484 10.9551 46.8419 10.9224 46.8293 10.892C46.8167 10.8615 46.7982 10.8339 46.7749 10.8105L46.5508 10.5865C46.5275 10.5632 46.509 10.5355 46.4964 10.5051C46.4838 10.4746 46.4773 10.442 46.4773 10.409C46.4773 10.3761 46.4838 10.3434 46.4964 10.313C46.509 10.2825 46.5275 10.2548 46.5508 10.2315L46.7749 10.0075C46.7982 9.98421 46.8167 9.95654 46.8293 9.92609C46.8419 9.89563 46.8484 9.86299 46.8484 9.83003C46.8484 9.79707 46.8419 9.76442 46.8293 9.73397C46.8167 9.70352 46.7982 9.67584 46.7749 9.65254L46.5508 9.42852C46.5275 9.40521 46.509 9.37754 46.4964 9.34708C46.4838 9.31663 46.4773 9.28399 46.4773 9.25103C46.4773 9.21806 46.4838 9.18542 46.4964 9.15497C46.509 9.12451 46.5275 9.09684 46.5508 9.07354L46.7749 8.84951C46.7982 8.82621 46.8167 8.79854 46.8293 8.76808C46.8419 8.73763 46.8484 8.70499 46.8484 8.67202C46.8484 8.63906 46.8419 8.60642 46.8293 8.57596C46.8167 8.54551 46.7982 8.51784 46.7749 8.49453L46.5508 8.27051C46.5275 8.2472 46.509 8.21953 46.4964 8.18908C46.4838 8.15862 46.4773 8.12598 46.4773 8.09302C46.4773 8.06005 46.4838 8.02741 46.4964 7.99696C46.509 7.9665 46.5275 7.93883 46.5508 7.91553L46.7749 7.6915C46.7982 7.6682 46.8167 7.64053 46.8293 7.61007C46.8419 7.57962 46.8484 7.54698 46.8484 7.51401C46.8484 7.48105 46.8419 7.44841 46.8293 7.41795C46.8167 7.3875 46.7982 7.35983 46.7749 7.33652L46.5508 7.1125C46.5275 7.08919 46.509 7.06152 46.4964 7.03107C46.4838 7.00061 46.4773 6.96797 46.4773 6.93501C46.4773 6.90205 46.4838 6.8694 46.4964 6.83895C46.509 6.8085 46.5275 6.78083 46.5508 6.75752L46.7748 6.53369Z" fill="#DCE2E2"/>
<path d="M46.7586 32.3577H48.6307C48.8671 32.3577 49.0939 32.2638 49.2611 32.0966C49.4283 31.9294 49.5223 31.7026 49.5223 31.4661V30.6182C49.5223 30.3817 49.4283 30.1549 49.2611 29.9877C49.0939 29.8205 48.8671 29.7266 48.6307 29.7266H18.8178C18.7423 29.7268 18.6673 29.7367 18.5943 29.756C18.3721 29.7372 18.1491 29.7274 17.9261 29.7266C13.3879 29.7266 9.70898 33.4055 9.70898 37.9437C9.70898 42.4818 13.3879 46.1607 17.9261 46.1607C18.1491 46.1599 18.3721 46.1501 18.5943 46.1313C18.6673 46.1506 18.7424 46.1604 18.8178 46.1607H48.6306C48.867 46.1607 49.0938 46.0668 49.261 45.8996C49.4282 45.7324 49.5222 45.5056 49.5222 45.2691V44.4212C49.5222 44.1847 49.4282 43.9579 49.261 43.7907C49.0938 43.6235 48.867 43.5296 48.6306 43.5296H46.7585C46.522 43.5296 46.2952 43.4357 46.128 43.2684C45.9608 43.1012 45.8669 42.8745 45.8669 42.638V33.2494C45.867 32.7569 46.2662 32.3577 46.7586 32.3577Z" fill="#4F52FF"/>
<path d="M48.1748 34.2677C48.2265 34.2159 48.2556 34.1456 48.2556 34.0724C48.2556 33.9992 48.2265 33.9289 48.1748 33.8771L47.9284 33.6308C47.8766 33.579 47.8475 33.5087 47.8475 33.4355C47.8475 33.3623 47.8766 33.292 47.9284 33.2402L48.1748 32.9938C48.2265 32.9421 48.2556 32.8718 48.2556 32.7986C48.2556 32.7253 48.2265 32.6551 48.1748 32.6033L47.9355 32.3579H18.3126C15.2277 32.3579 12.7268 34.8588 12.7268 37.9438C12.7268 41.0287 15.2277 43.5296 18.3126 43.5296H47.8307L48.1748 43.1855C48.2265 43.1338 48.2556 43.0635 48.2556 42.9903C48.2556 42.917 48.2265 42.8468 48.1748 42.795L47.9284 42.5486C47.8766 42.4968 47.8475 42.4266 47.8475 42.3534C47.8475 42.2801 47.8766 42.2099 47.9284 42.1581L48.1748 41.9117C48.2265 41.8599 48.2556 41.7896 48.2556 41.7164C48.2556 41.6432 48.2265 41.5729 48.1748 41.5211L47.9284 41.2747C47.8766 41.2229 47.8475 41.1527 47.8475 41.0794C47.8475 41.0062 47.8766 40.936 47.9284 40.8842L48.1748 40.6378C48.2265 40.586 48.2556 40.5158 48.2556 40.4425C48.2556 40.3693 48.2265 40.2991 48.1748 40.2473L47.9284 40.0009C47.8766 39.9491 47.8475 39.8788 47.8475 39.8056C47.8475 39.7323 47.8766 39.6621 47.9284 39.6103L48.1748 39.3639C48.2265 39.3121 48.2556 39.2418 48.2556 39.1686C48.2556 39.0954 48.2265 39.0251 48.1748 38.9733L47.9284 38.727C47.8766 38.6752 47.8475 38.6049 47.8475 38.5317C47.8475 38.4585 47.8766 38.3882 47.9284 38.3364L48.1748 38.09C48.2265 38.0382 48.2556 37.968 48.2556 37.8947C48.2556 37.8215 48.2265 37.7512 48.1748 37.6994L47.9284 37.453C47.8766 37.4012 47.8475 37.331 47.8475 37.2578C47.8475 37.1845 47.8766 37.1143 47.9284 37.0625L48.1748 36.8161C48.2265 36.7643 48.2556 36.6941 48.2556 36.6208C48.2556 36.5476 48.2265 36.4774 48.1748 36.4256L47.9284 36.1792C47.8766 36.1274 47.8475 36.0572 47.8475 35.9839C47.8475 35.9107 47.8766 35.8405 47.9284 35.7887L48.1748 35.5423C48.2265 35.4905 48.2556 35.4203 48.2556 35.347C48.2556 35.2738 48.2265 35.2035 48.1748 35.1518L47.9284 34.9054C47.8766 34.8536 47.8475 34.7833 47.8475 34.7101C47.8475 34.6369 47.8766 34.5666 47.9284 34.5148L48.1748 34.2677Z" fill="#DCE2E2"/>
</svg>
