<svg width="101" height="101" viewBox="0 0 101 101" fill="none" xmlns="http://www.w3.org/2000/svg">
<path d="M17.1666 42.6665H17.6666V42.1665V30.1665H25V42.1665V42.6665H25.5H37.5V49.9998H25.5H25V50.4998V62.4998H17.6666V50.4998V49.9998H17.1666H5.16663V42.6665H17.1666ZM88.4166 76.4165H88.9166V75.9165V71.3332C88.9166 70.8094 88.6075 70.3041 88.2031 69.8564C87.7842 69.3927 87.1896 68.9101 86.4631 68.4251C85.0072 67.4532 82.9545 66.4272 80.5288 65.4917C75.6772 63.6204 69.2616 62.0832 63 62.0832C56.6762 62.0832 50.2605 63.6202 45.4237 65.4919C43.0055 66.4276 40.9643 67.4537 39.5179 68.426C38.7961 68.9112 38.2059 69.394 37.7903 69.858C37.3887 70.3063 37.0833 70.811 37.0833 71.3332V75.9165V76.4165H37.5833H88.4166ZM51.5684 22.4016C54.6002 19.3698 58.7123 17.6665 63 17.6665C67.2876 17.6665 71.3997 19.3698 74.4315 22.4016C77.4633 25.4334 79.1666 29.5455 79.1666 33.8332C79.1666 38.1208 77.4633 42.2329 74.4315 45.2647C71.3997 48.2966 67.2876 49.9998 63 49.9998C58.7123 49.9998 54.6002 48.2966 51.5684 45.2647C48.5366 42.2329 46.8333 38.1208 46.8333 33.8332C46.8333 29.5455 48.5366 25.4334 51.5684 22.4016ZM66.5398 25.2873C65.4175 24.8224 64.2147 24.5832 63 24.5832C60.5467 24.5832 58.1939 25.5577 56.4592 27.2924C54.7245 29.0271 53.75 31.3799 53.75 33.8332C53.75 35.0479 53.9892 36.2507 54.4541 37.373C54.9189 38.4953 55.6003 39.515 56.4592 40.3739C57.3182 41.2328 58.3379 41.9142 59.4601 42.3791C60.5824 42.8439 61.7852 43.0832 63 43.0832C64.2147 43.0832 65.4175 42.8439 66.5398 42.3791C67.662 41.9142 68.6818 41.2328 69.5407 40.3739C70.3996 39.515 71.081 38.4953 71.5458 37.373C72.0107 36.2507 72.25 35.0479 72.25 33.8332C72.25 32.6184 72.0107 31.4156 71.5458 30.2933C71.081 29.1711 70.3996 28.1514 69.5407 27.2924C68.6818 26.4335 67.662 25.7521 66.5398 25.2873ZM30.1666 71.3332C30.1666 68.735 31.4592 66.4266 33.6498 64.4029C35.844 62.3759 38.9063 60.668 42.347 59.2922C49.2293 56.5404 57.4995 55.1665 63 55.1665C68.5004 55.1665 76.7706 56.5404 83.6529 59.2922C87.0936 60.668 90.156 62.3759 92.3501 64.4029C94.5407 66.4266 95.8333 68.735 95.8333 71.3332V83.3332H30.1666V71.3332Z" fill="url(#paint0_linear_27_36092)" stroke="url(#paint1_linear_27_36092)"/>
<defs>
<linearGradient id="paint0_linear_27_36092" x1="50.5" y1="17.1665" x2="50.5" y2="83.8332" gradientUnits="userSpaceOnUse">
<stop stop-color="#4F52FF"/>
<stop offset="1" stop-color="#2B2D9E"/>
</linearGradient>
<linearGradient id="paint1_linear_27_36092" x1="50.5" y1="17.1665" x2="50.5" y2="83.8332" gradientUnits="userSpaceOnUse">
<stop stop-color="#4F52FF"/>
<stop offset="1" stop-color="#2B2D9E"/>
</linearGradient>
</defs>
</svg>
