<svg width="41" height="33" viewBox="0 0 41 33" fill="none" xmlns="http://www.w3.org/2000/svg">
<g id="mingcute:book-5-line" clip-path="url(#clip0_41_191824)">
<g id="Group">
<path id="Vector" fill-rule="evenodd" clip-rule="evenodd" d="M5.125 2.93317C5.125 2.03365 5.48497 1.17096 6.12572 0.534903C6.76647 -0.101158 7.63551 -0.458493 8.54167 -0.458493H11.9583C12.5802 -0.458493 13.1644 -0.293998 13.6667 -0.00401007C14.1857 -0.302468 14.7751 -0.459269 15.375 -0.458493H18.7917C20.0336 -0.458493 21.1218 0.19949 21.7198 1.18477C22.0785 0.899869 22.4988 0.682803 22.9703 0.557311L26.2708 -0.319435C26.7042 -0.434848 27.1563 -0.464373 27.6012 -0.406323C28.0461 -0.348273 28.4752 -0.203784 28.8638 0.0188897C29.2525 0.241564 29.5932 0.538061 29.8664 0.891448C30.1396 1.24483 30.34 1.64819 30.4562 2.07847L37.5287 28.2876C37.6449 28.7178 37.6747 29.1666 37.6162 29.6083C37.5577 30.05 37.4122 30.4759 37.1879 30.8617C36.9635 31.2475 36.6649 31.5857 36.3089 31.8569C35.9529 32.1281 35.5465 32.3271 35.1131 32.4424L31.8126 33.3191C31.3792 33.4345 30.9271 33.4641 30.4821 33.406C30.0372 33.348 29.6082 33.2035 29.2195 32.9808C28.8308 32.7581 28.4902 32.4616 28.217 32.1082C27.9437 31.7548 27.7433 31.3515 27.6272 30.9212L22.2083 10.8408V30.0665C22.2083 30.966 21.8484 31.8287 21.2076 32.4648C20.5669 33.1008 19.6978 33.4582 18.7917 33.4582H15.375C14.7751 33.459 14.1857 33.3021 13.6667 33.0037C13.1476 33.3021 12.5582 33.459 11.9583 33.4582H8.54167C7.63551 33.4582 6.76647 33.1008 6.12572 32.4648C5.48497 31.8287 5.125 30.966 5.125 30.0665V2.93317ZM8.54167 2.93317H11.9583V30.0665H8.54167V2.93317ZM18.7917 30.0665H15.375V2.93317H18.7917V30.0665ZM23.8552 3.83366L27.154 2.95692L34.2299 29.166L30.9294 30.0428L23.8552 3.83366Z" fill="black"/>
</g>
</g>
<defs>
<clipPath id="clip0_41_191824">
<rect width="41" height="33" fill="white"/>
</clipPath>
</defs>
</svg>
