<svg width="70" height="70" viewBox="0 0 70 70" fill="none" xmlns="http://www.w3.org/2000/svg">
<g id="pepicons-pencil:file">
<g id="Group">
<path id="Vector" d="M22.75 42C22.2859 42 21.8408 41.8156 21.5126 41.4874C21.1844 41.1592 21 40.7141 21 40.25C21 39.7859 21.1844 39.3408 21.5126 39.0126C21.8408 38.6844 22.2859 38.5 22.75 38.5H47.25C47.7141 38.5 48.1592 38.6844 48.4874 39.0126C48.8156 39.3408 49 39.7859 49 40.25C49 40.7141 48.8156 41.1592 48.4874 41.4874C48.1592 41.8156 47.7141 42 47.25 42H22.75ZM22.75 52.5C22.2859 52.5 21.8408 52.3156 21.5126 51.9874C21.1844 51.6592 21 51.2141 21 50.75C21 50.2859 21.1844 49.8408 21.5126 49.5126C21.8408 49.1844 22.2859 49 22.75 49H47.25C47.7141 49 48.1592 49.1844 48.4874 49.5126C48.8156 49.8408 49 50.2859 49 50.75C49 51.2141 48.8156 51.6592 48.4874 51.9874C48.1592 52.3156 47.7141 52.5 47.25 52.5H22.75Z" fill="black" fill-opacity="0.8"/>
<path id="Vector_2" fill-rule="evenodd" clip-rule="evenodd" d="M39.1475 3.5H15.75C14.3576 3.5 13.0223 4.05312 12.0377 5.03769C11.0531 6.02226 10.5 7.35761 10.5 8.75V61.25C10.5 62.6424 11.0531 63.9777 12.0377 64.9623C13.0223 65.9469 14.3576 66.5 15.75 66.5H54.25C55.6424 66.5 56.9777 65.9469 57.9623 64.9623C58.9469 63.9777 59.5 62.6424 59.5 61.25V25.207C59.4997 23.8927 59.0063 22.6262 58.1175 21.658L43.0185 5.201C42.5264 4.66461 41.9282 4.2364 41.2618 3.94357C40.5954 3.65074 39.8754 3.49969 39.1475 3.5ZM14 8.75C14 8.28587 14.1844 7.84075 14.5126 7.51256C14.8408 7.18438 15.2859 7 15.75 7H39.1475C39.3903 6.99973 39.6306 7.05001 39.8529 7.14762C40.0753 7.24524 40.2748 7.38806 40.439 7.567L55.538 24.024C55.8347 24.3466 55.9996 24.7687 56 25.207V61.25C56 61.7141 55.8156 62.1592 55.4874 62.4874C55.1592 62.8156 54.7141 63 54.25 63H15.75C15.2859 63 14.8408 62.8156 14.5126 62.4874C14.1844 62.1592 14 61.7141 14 61.25V8.75Z" fill="black" fill-opacity="0.8"/>
<path id="Vector_3" d="M38.5 24.5H57.75C58.2141 24.5 58.6592 24.6844 58.9874 25.0126C59.3156 25.3408 59.5 25.7859 59.5 26.25C59.5 26.7141 59.3156 27.1592 58.9874 27.4874C58.6592 27.8156 58.2141 28 57.75 28H36.75C36.2859 28 35.8408 27.8156 35.5126 27.4874C35.1844 27.1592 35 26.7141 35 26.25V5.25C35 4.78587 35.1844 4.34075 35.5126 4.01256C35.8408 3.68437 36.2859 3.5 36.75 3.5C37.2141 3.5 37.6592 3.68437 37.9874 4.01256C38.3156 4.34075 38.5 4.78587 38.5 5.25V24.5Z" fill="black" fill-opacity="0.8"/>
</g>
</g>
</svg>
