<svg width="100" height="100" viewBox="0 0 100 100" fill="none" xmlns="http://www.w3.org/2000/svg">
<g clip-path="url(#clip0_24_34309)">
<path d="M48.8 0C77.085 0 100 22.385 100 50C100 77.615 77.08 100 48.8 100C32.845 100 18.09 92.815 8.45 80.77C8.17977 80.4336 7.97991 80.0463 7.86229 79.6311C7.74468 79.216 7.71171 78.7814 7.76535 78.3532C7.81898 77.9251 7.95813 77.512 8.17452 77.1387C8.39091 76.7654 8.68013 76.4394 9.025 76.18C9.72824 75.645 10.6122 75.4047 11.4895 75.5102C12.3668 75.6157 13.1686 76.0585 13.725 76.745C17.9421 81.9861 23.2855 86.2103 29.3584 89.1039C35.4313 91.9976 42.078 93.4864 48.805 93.46C73.38 93.46 93.305 74 93.305 50C93.305 26 73.38 6.54 48.805 6.54C42.174 6.51451 35.6201 7.96116 29.616 10.7756C23.6119 13.59 18.3073 17.702 14.085 22.815C13.5198 23.4952 12.7118 23.9284 11.8324 24.0227C10.9531 24.117 10.0716 23.8649 9.375 23.32C9.03313 23.0561 8.74782 22.7262 8.53606 22.3498C8.3243 21.9735 8.19041 21.5583 8.14236 21.1292C8.09431 20.7 8.13309 20.2655 8.25637 19.8517C8.37966 19.4378 8.58494 19.0529 8.86 18.72C18.515 6.97 33.07 0 48.8 0ZM51.525 34.31L65.06 47.845C66.37 49.155 66.395 51.245 65.115 52.525L51.9 65.75C51.589 66.0544 51.221 66.2944 50.8171 66.4564C50.4131 66.6184 49.9812 66.6992 49.5461 66.694C49.1109 66.6889 48.6811 66.5981 48.2811 66.4266C47.8811 66.2552 47.5188 66.0066 47.215 65.695C46.9037 65.3909 46.6555 65.0283 46.4845 64.6282C46.3135 64.228 46.2231 63.798 46.2185 63.3629C46.2138 62.9277 46.295 62.4959 46.4574 62.0922C46.6199 61.6885 46.8603 61.3207 47.165 61.01L54.9 53.27L3.35 53.275C2.9149 53.2803 2.48303 53.1997 2.07909 53.0379C1.67516 52.8761 1.30709 52.6363 0.995939 52.3321C0.684791 52.0279 0.436672 51.6654 0.265778 51.2652C0.0948841 50.865 0.00456903 50.4351 0 50C0 48.195 1.5 46.73 3.35 46.73H54.69L46.9 38.935C46.5887 38.6309 46.3405 38.2683 46.1695 37.8682C45.9985 37.468 45.9081 37.038 45.9035 36.6029C45.8988 36.1677 45.98 35.7359 46.1424 35.3322C46.3049 34.9285 46.5453 34.5607 46.85 34.25C47.4777 33.6383 48.3225 33.3006 49.1989 33.3109C50.0753 33.3213 50.9118 33.6837 51.525 34.31Z" fill="url(#paint0_linear_24_34309)"/>
</g>
<defs>
<linearGradient id="paint0_linear_24_34309" x1="50" y1="0" x2="50" y2="100" gradientUnits="userSpaceOnUse">
<stop stop-color="#4F52FF"/>
<stop offset="1" stop-color="#2B2D9E"/>
</linearGradient>
<clipPath id="clip0_24_34309">
<rect width="100" height="100" fill="white"/>
</clipPath>
</defs>
</svg>
