<svg width="34" height="35" viewBox="0 0 34 35" fill="none" xmlns="http://www.w3.org/2000/svg">
<g id="uiw:message" clip-path="url(#clip0_41_191819)">
<path id="Vector" d="M17 0.5C26.0814 0.5 34 7.997 34 16.65C34 25.1568 26.2599 31.8514 17 31.8514C15.0195 31.8524 13.0513 31.5392 11.169 30.9232C10.3802 31.6882 10.1099 31.9483 8.4354 33.5633C7.2284 34.4745 6.0928 34.7839 5.0779 34.2093C4.0545 33.6313 3.7468 32.5059 3.9559 31.0235L4.6359 27.0812C1.683 24.3034 0 20.6314 0 16.65C0 7.997 7.9169 0.5 17 0.5ZM17 2.88C9.2038 2.88 2.38 9.34 2.38 16.65C2.38 20.1265 3.9304 23.3276 6.664 25.711L6.698 25.7399L7.2029 26.1785L7.089 26.8415L6.8544 28.2083L6.7915 28.5721L6.307 31.3907C6.27843 31.5805 6.2614 31.7718 6.256 31.9636V32.1251C6.256 32.1336 6.2543 32.137 6.2526 32.1387C6.2645 32.1217 6.4957 32.0486 6.8918 31.7596L10.5808 28.1794L11.2846 28.4446C13.1128 29.1267 15.0487 29.4751 17 29.4731C25.0172 29.4731 31.62 23.7611 31.62 16.65C31.62 9.3417 24.7962 2.88 17 2.88ZM8.8859 13.7821C9.22838 13.7696 9.56987 13.8262 9.88996 13.9487C10.2101 14.0711 10.5022 14.2568 10.7489 14.4947C10.9956 14.7325 11.1919 15.0177 11.3259 15.3331C11.4599 15.6485 11.529 15.9877 11.529 16.3304C11.529 16.6731 11.4599 17.0123 11.3259 17.3277C11.1919 17.6431 10.9956 17.9283 10.7489 18.1661C10.5022 18.404 10.2101 18.5897 9.88996 18.7121C9.56987 18.8346 9.22838 18.8912 8.8859 18.8787C8.22616 18.8546 7.60147 18.5756 7.14326 18.1003C6.68504 17.625 6.429 16.9906 6.429 16.3304C6.429 15.6702 6.68504 15.0358 7.14326 14.5605C7.60147 14.0852 8.22616 13.8062 8.8859 13.7821ZM17.3825 13.7821C17.725 13.7696 18.0665 13.8262 18.3866 13.9487C18.7067 14.0711 18.9988 14.2568 19.2455 14.4947C19.4922 14.7325 19.6884 15.0177 19.8225 15.3331C19.9565 15.6485 20.0256 15.9877 20.0256 16.3304C20.0256 16.6731 19.9565 17.0123 19.8225 17.3277C19.6884 17.6431 19.4922 17.9283 19.2455 18.1661C18.9988 18.404 18.7067 18.5897 18.3866 18.7121C18.0665 18.8346 17.725 18.8912 17.3825 18.8787C16.7228 18.8546 16.0981 18.5756 15.6399 18.1003C15.1816 17.625 14.9256 16.9906 14.9256 16.3304C14.9256 15.6702 15.1816 15.0358 15.6399 14.5605C16.0981 14.0852 16.7228 13.8062 17.3825 13.7821ZM25.8774 13.7821C26.2199 13.7696 26.5614 13.8262 26.8815 13.9487C27.2016 14.0711 27.4937 14.2568 27.7404 14.4947C27.9871 14.7325 28.1833 15.0177 28.3174 15.3331C28.4514 15.6485 28.5205 15.9877 28.5205 16.3304C28.5205 16.6731 28.4514 17.0123 28.3174 17.3277C28.1833 17.6431 27.9871 17.9283 27.7404 18.1661C27.4937 18.404 27.2016 18.5897 26.8815 18.7121C26.5614 18.8346 26.2199 18.8912 25.8774 18.8787C25.2177 18.8546 24.593 18.5756 24.1348 18.1003C23.6765 17.625 23.4205 16.9906 23.4205 16.3304C23.4205 15.6702 23.6765 15.0358 24.1348 14.5605C24.593 14.0852 25.2177 13.8062 25.8774 13.7821Z" fill="black"/>
</g>
<defs>
<clipPath id="clip0_41_191819">
<rect width="34" height="34" fill="white" transform="translate(0 0.5)"/>
</clipPath>
</defs>
</svg>
